REM DIRINDEX 1\2,1\3,1\4,1\6,1\5\7,1\5\8
REM DIRNAME folder01,folder02,folder03,folder04,folder05,folder06,folder07,folder08
TITLE ""
FILE "DB4500_5th_5C_22.mp3" MP3
  TRACK 01 AUDIO
    TITLE "0:"
    INDEX 01 00:00:00
  TRACK 02 AUDIO
    TITLE "2:cjc114_3969"
    INDEX 01 00:00:03
  TRACK 03 AUDIO
    TITLE "0:"
    INDEX 01 00:01:01
  TRACK 04 AUDIO
    TITLE "3:cjc114_3970"
    INDEX 01 00:01:22
  TRACK 05 AUDIO
    TITLE "0:"
    INDEX 01 00:03:15
  TRACK 06 AUDIO
    TITLE "4:cjc114_3971"
    INDEX 01 00:03:39
  TRACK 07 AUDIO
    TITLE "0:"
    INDEX 01 00:05:71
  TRACK 08 AUDIO
    TITLE "2:cjc114_3972"
    INDEX 01 00:06:39
  TRACK 09 AUDIO
    TITLE "0:"
    INDEX 01 00:07:41
  TRACK 10 AUDIO
    TITLE "3:cjc114_3973"
    INDEX 01 00:07:62
  TRACK 11 AUDIO
    TITLE "0:"
    INDEX 01 00:09:16
  TRACK 12 AUDIO
    TITLE "4:cjc114_3974"
    INDEX 01 00:09:40
  TRACK 13 AUDIO
    TITLE "0:"
    INDEX 01 00:11:39
  TRACK 14 AUDIO
    TITLE "2:cjc114_3975"
    INDEX 01 00:12:09
  TRACK 15 AUDIO
    TITLE "0:"
    INDEX 01 00:13:28
  TRACK 16 AUDIO
    TITLE "3:cjc114_3976"
    INDEX 01 00:13:47
  TRACK 17 AUDIO
    TITLE "0:"
    INDEX 01 00:15:17
  TRACK 18 AUDIO
    TITLE "4:cjc114_3977"
    INDEX 01 00:15:38
  TRACK 19 AUDIO
    TITLE "0:"
    INDEX 01 00:18:13
  TRACK 20 AUDIO
    TITLE "2:cjc114_3978"
    INDEX 01 00:18:58
  TRACK 21 AUDIO
    TITLE "0:"
    INDEX 01 00:19:73
  TRACK 22 AUDIO
    TITLE "3:cjc114_3979"
    INDEX 01 00:20:20
  TRACK 23 AUDIO
    TITLE "0:"
    INDEX 01 00:21:57
  TRACK 24 AUDIO
    TITLE "4:cjc114_3980"
    INDEX 01 00:22:01
  TRACK 25 AUDIO
    TITLE "0:"
    INDEX 01 00:24:45
  TRACK 26 AUDIO
    TITLE "4:cjc114_3981"
    INDEX 01 00:25:17
  TRACK 27 AUDIO
    TITLE "0:"
    INDEX 01 00:29:19
  TRACK 28 AUDIO
    TITLE "2:cjc114_3982"
    INDEX 01 00:29:64
  TRACK 29 AUDIO
    TITLE "0:"
    INDEX 01 00:31:08
  TRACK 30 AUDIO
    TITLE "3:cjc114_3983"
    INDEX 01 00:31:31
  TRACK 31 AUDIO
    TITLE "0:"
    INDEX 01 00:33:15
  TRACK 32 AUDIO
    TITLE "4:cjc114_3984"
    INDEX 01 00:33:38
  TRACK 33 AUDIO
    TITLE "0:"
    INDEX 01 00:36:17
  TRACK 34 AUDIO
    TITLE "2:cjc114_3985"
    INDEX 01 00:36:66
  TRACK 35 AUDIO
    TITLE "0:"
    INDEX 01 00:38:24
  TRACK 36 AUDIO
    TITLE "3:cjc114_3986"
    INDEX 01 00:38:43
  TRACK 37 AUDIO
    TITLE "0:"
    INDEX 01 00:40:01
  TRACK 38 AUDIO
    TITLE "4:cjc114_3987"
    INDEX 01 00:40:24
  TRACK 39 AUDIO
    TITLE "0:"
    INDEX 01 00:43:52
  TRACK 40 AUDIO
    TITLE "2:cjc114_3988"
    INDEX 01 00:44:22
  TRACK 41 AUDIO
    TITLE "0:"
    INDEX 01 00:45:24
  TRACK 42 AUDIO
    TITLE "3:cjc114_3989"
    INDEX 01 00:45:45
  TRACK 43 AUDIO
    TITLE "0:"
    INDEX 01 00:46:66
  TRACK 44 AUDIO
    TITLE "4:cjc114_3990"
    INDEX 01 00:47:13
  TRACK 45 AUDIO
    TITLE "0:"
    INDEX 01 00:49:35
  TRACK 46 AUDIO
    TITLE "2:cjc114_3991"
    INDEX 01 00:50:15
  TRACK 47 AUDIO
    TITLE "0:"
    INDEX 01 00:51:26
  TRACK 48 AUDIO
    TITLE "3:cjc114_3992"
    INDEX 01 00:51:46
  TRACK 49 AUDIO
    TITLE "0:"
    INDEX 01 00:53:02
  TRACK 50 AUDIO
    TITLE "4:cjc114_3993"
    INDEX 01 00:53:25
  TRACK 51 AUDIO
    TITLE "0:"
    INDEX 01 00:57:23
  TRACK 52 AUDIO
    TITLE "2:cjc114_3994"
    INDEX 01 00:57:68
  TRACK 53 AUDIO
    TITLE "0:"
    INDEX 01 00:59:08
  TRACK 54 AUDIO
    TITLE "3:cjc114_3995"
    INDEX 01 00:59:22
  TRACK 55 AUDIO
    TITLE "0:"
    INDEX 01 01:00:53
  TRACK 56 AUDIO
    TITLE "4:cjc114_3996"
    INDEX 01 01:00:68
  TRACK 57 AUDIO
    TITLE "0:"
    INDEX 01 01:04:31
  TRACK 58 AUDIO
    TITLE "2:cjc114_3997"
    INDEX 01 01:04:70
  TRACK 59 AUDIO
    TITLE "0:"
    INDEX 01 01:06:12
  TRACK 60 AUDIO
    TITLE "3:cjc114_3998"
    INDEX 01 01:06:28
  TRACK 61 AUDIO
    TITLE "0:"
    INDEX 01 01:08:09
  TRACK 62 AUDIO
    TITLE "4:cjc114_3999"
    INDEX 01 01:08:25
  TRACK 63 AUDIO
    TITLE "0:"
    INDEX 01 01:11:27
  TRACK 64 AUDIO
    TITLE "2:cjc114_4000"
    INDEX 01 01:11:64
  TRACK 65 AUDIO
    TITLE "0:"
    INDEX 01 01:13:06
  TRACK 66 AUDIO
    TITLE "3:cjc114_4001"
    INDEX 01 01:13:20
  TRACK 67 AUDIO
    TITLE "0:"
    INDEX 01 01:14:33
  TRACK 68 AUDIO
    TITLE "4:cjc114_4002"
    INDEX 01 01:14:43
  TRACK 69 AUDIO
    TITLE "0:"
    INDEX 01 01:18:54
  TRACK 70 AUDIO
    TITLE "2:cjc114_4003"
    INDEX 01 01:19:15
  TRACK 71 AUDIO
    TITLE "0:"
    INDEX 01 01:20:48
  TRACK 72 AUDIO
    TITLE "3:cjc114_4004"
    INDEX 01 01:20:63
  TRACK 73 AUDIO
    TITLE "0:"
    INDEX 01 01:22:31
  TRACK 74 AUDIO
    TITLE "4:cjc114_4005"
    INDEX 01 01:22:44
  TRACK 75 AUDIO
    TITLE "0:"
    INDEX 01 01:25:49
  TRACK 76 AUDIO
    TITLE "2:cjc114_4006"
    INDEX 01 01:26:13
  TRACK 77 AUDIO
    TITLE "0:"
    INDEX 01 01:27:06
  TRACK 78 AUDIO
    TITLE "3:cjc114_4007"
    INDEX 01 01:27:20
  TRACK 79 AUDIO
    TITLE "0:"
    INDEX 01 01:28:02
  TRACK 80 AUDIO
    TITLE "4:cjc114_4008"
    INDEX 01 01:28:14
  TRACK 81 AUDIO
    TITLE "0:"
    INDEX 01 01:30:54
